<svg width="23" height="24" viewBox="0 0 23 24" fill="none" xmlns="http://www.w3.org/2000/svg">
<path fill-rule="evenodd" clip-rule="evenodd" d="M6.42975 12.0875C6.49583 11.7131 6.45682 11.3639 6.46386 11.0172C6.47076 10.6761 6.46534 10.3347 6.46534 9.99338C6.46534 9.64278 6.46537 9.29217 6.46537 8.93955C6.71821 8.98293 10.4585 10.711 10.8757 10.9748V23.144C10.7524 23.0779 10.6531 23.0295 10.5587 22.9732C7.28748 21.0205 4.0167 19.0672 0.745923 17.1139C0.6784 17.0736 0.612602 17.0304 0.54353 16.9928C0.42408 16.9278 0.357507 16.8381 0.372434 16.6983C0.37944 16.633 0.373244 16.5663 0.373244 16.5003C0.373209 13.1423 0.373209 9.78438 0.373209 6.42641V6.02853C1.77799 6.68581 3.13232 7.31948 4.52358 7.97043V8.32035C4.52358 9.15707 4.5309 9.99393 4.51865 10.8305C4.51548 11.0466 4.58357 11.1694 4.78508 11.2672C5.26098 11.4983 5.72399 11.7542 6.19363 11.9975C6.25911 12.0314 6.33251 12.051 6.42975 12.0875ZM22.1786 6.03643V6.42117C22.1787 9.79091 22.1755 13.1606 22.1852 16.5303C22.1859 16.7954 22.0997 16.9412 21.8682 17.0788C18.6023 19.0203 15.3428 20.9717 12.0814 22.9202C11.9579 22.994 11.8311 23.0626 11.677 23.15V10.9396C13.1258 10.2619 14.5804 9.5814 16.0885 8.87588V12.0889C16.2062 12.0488 16.2802 12.0334 16.3445 12.0001C16.8242 11.7516 17.2969 11.4897 17.7828 11.2532C17.9784 11.158 18.0301 11.0301 18.0285 10.8339C18.0214 9.99707 18.0348 9.15994 18.0196 8.32329C18.015 8.07142 18.0853 7.92917 18.3319 7.81722C19.5322 7.27226 20.7227 6.70712 21.917 6.14957C21.9866 6.11706 22.0581 6.08839 22.1786 6.03643ZM0.447051 5.10565C0.527001 5.0607 0.589455 5.01947 0.656907 4.98844C2.08837 4.33038 3.52131 3.67529 4.95116 3.01394C5.13549 2.92868 5.28941 2.90248 5.48807 3.00289C6.82268 3.67768 8.16466 4.33859 9.50382 5.00483C9.53311 5.01941 9.55722 5.04376 9.6076 5.0814C9.5512 5.12211 9.5079 5.1634 9.45633 5.1891C8.11759 5.85609 6.77738 6.52038 5.43931 7.18871C5.30155 7.25748 5.18594 7.28714 5.02858 7.21509C3.53452 6.53161 2.03581 5.85773 0.538971 5.18C0.511757 5.16765 0.490987 5.14182 0.447051 5.10565ZM22.1369 5.06884C21.8876 5.1857 21.688 5.28112 21.4869 5.37322C20.2477 5.94076 19.0071 6.50543 17.7701 7.07752C17.6351 7.13996 17.5286 7.15244 17.3905 7.08333C16.1125 6.4434 14.8308 5.81028 13.5507 5.17407C13.5119 5.15478 13.4793 5.1234 13.4266 5.08512C13.5158 5.03079 13.5873 4.97975 13.6652 4.94105C14.8852 4.3354 16.1085 3.7358 17.3242 3.12225C17.5164 3.02529 17.6627 3.02409 17.8585 3.1141C19.1582 3.71158 20.465 4.29455 21.7689 4.88348C21.8785 4.93298 21.9838 4.99141 22.1369 5.06884ZM15.6049 8.06645C14.9829 8.35123 14.3903 8.62223 13.7979 8.8938C13.0514 9.23602 12.3048 9.57818 11.5589 9.9217C11.4132 9.98875 11.2825 10.0332 11.1117 9.95481C9.84395 9.37301 8.57094 8.80208 7.30001 8.22687C7.28072 8.21818 7.26653 8.19882 7.23242 8.16919C7.2985 8.12427 7.35584 8.07477 7.42196 8.04189C8.71018 7.40096 10.0007 6.76435 11.287 6.11976C11.4559 6.03505 11.5927 6.03622 11.7624 6.12137C12.9779 6.73123 14.1985 7.33162 15.4166 7.93669C15.4737 7.96502 15.5225 8.00901 15.6049 8.06645ZM7.1992 1.99411C7.68443 1.7705 8.12118 1.56844 8.55867 1.36776C9.36665 0.997105 10.1779 0.632954 10.9813 0.25303C11.1748 0.161548 11.332 0.167877 11.5229 0.255083C12.833 0.853381 14.1478 1.44196 15.4607 2.03455C15.5011 2.05278 15.537 2.08039 15.5969 2.11707C15.5113 2.17225 15.443 2.22637 15.3662 2.26449C14.1678 2.8596 12.9672 3.45054 11.7703 4.04846C11.6057 4.13068 11.4685 4.14542 11.2948 4.05832C9.9883 3.40333 8.67657 2.75823 7.36698 2.10903C7.32784 2.08963 7.29422 2.05976 7.1992 1.99411Z" fill="#FF9500"/>
</svg>
